<svg xmlns="http://www.w3.org/2000/svg" xmlns:xlink="http://www.w3.org/1999/xlink" width="500" zoomAndPan="magnify" viewBox="0 0 375 112.499997" height="150" preserveAspectRatio="xMidYMid meet" version="1.0"><defs><g/><clipPath id="43e0e369a6"><path d="M 4.460938 5.589844 L 369.570312 5.589844 L 369.570312 106.390625 L 4.460938 106.390625 Z M 4.460938 5.589844 " clip-rule="nonzero"/></clipPath><clipPath id="f725c1abaf"><path d="M 14.328125 15.046875 L 187.191406 15.046875 L 187.191406 96.785156 L 14.328125 96.785156 Z M 14.328125 15.046875 " clip-rule="nonzero"/></clipPath></defs><g clip-path="url(#43e0e369a6)"><path stroke-linecap="butt" transform="matrix(0.745966, 0, 0, 0.747807, 4.461809, 5.588455)" fill="none" stroke-linejoin="miter" d="M -0.0011689 0.00185701 L 489.443685 0.00185701 L 489.443685 134.797117 L -0.0011689 134.797117 L -0.0011689 0.00185701 " stroke="#000000" stroke-width="10" stroke-opacity="1" stroke-miterlimit="4"/></g><g clip-path="url(#f725c1abaf)"><path fill="#000000" d="M 14.328125 15.046875 L 188.175781 15.046875 L 188.175781 97.625 L 14.328125 97.625 Z M 14.328125 15.046875 " fill-opacity="1" fill-rule="nonzero"/></g><g fill="#ffffff" fill-opacity="1"><g transform="translate(24.949812, 68.65134)"><g><path d="M 0.667969 0 L 4.355469 0 L 6.863281 -6.238281 L 20.242188 -6.238281 L 22.832031 0 L 26.480469 0 L 15.179688 -27.460938 L 11.964844 -27.460938 Z M 8.199219 -9.453125 L 13.574219 -22.632812 L 18.945312 -9.453125 Z M 8.199219 -9.453125 "/></g></g></g><g fill="#ffffff" fill-opacity="1"><g transform="translate(55.067876, 68.65134)"><g><path d="M 4 0 L 15.140625 0 C 20.671875 0 24.125 -2.941406 24.125 -7.6875 C 24.125 -10.789062 22.59375 -13.101562 19.769531 -14.238281 C 22.007812 -15.378906 23.339844 -17.496094 23.339844 -20.164062 C 23.339844 -24.597656 19.886719 -27.460938 14.632812 -27.460938 L 4 -27.460938 Z M 7.453125 -3.214844 L 7.453125 -12.433594 L 15.023438 -12.433594 C 18.59375 -12.433594 20.59375 -10.75 20.59375 -7.84375 C 20.59375 -4.902344 18.59375 -3.214844 15.0625 -3.214844 Z M 7.453125 -15.574219 L 7.453125 -24.242188 L 14.554688 -24.242188 C 17.886719 -24.242188 19.808594 -22.671875 19.808594 -19.886719 C 19.808594 -17.140625 17.925781 -15.574219 14.554688 -15.574219 Z M 7.453125 -15.574219 "/></g></g></g><g fill="#ffffff" fill-opacity="1"><g transform="translate(84.362441, 68.65134)"><g><path d="M 16.476562 0.511719 C 24.832031 0.511719 30.714844 -5.375 30.714844 -13.730469 C 30.714844 -22.085938 24.832031 -27.96875 16.476562 -27.96875 C 8.121094 -27.96875 2.273438 -22.085938 2.273438 -13.730469 C 2.273438 -5.375 8.121094 0.511719 16.476562 0.511719 Z M 5.804688 -13.730469 C 5.804688 -20.125 10.160156 -24.515625 16.476562 -24.515625 C 22.792969 -24.515625 27.144531 -20.125 27.144531 -13.730469 C 27.144531 -7.335938 22.792969 -2.941406 16.476562 -2.941406 C 10.160156 -2.941406 5.804688 -7.335938 5.804688 -13.730469 Z M 5.804688 -13.730469 "/></g></g></g><g fill="#ffffff" fill-opacity="1"><g transform="translate(120.284274, 68.65134)"><g><path d="M 14.277344 0.472656 C 20.910156 0.472656 24.910156 -3.882812 24.910156 -11.179688 L 24.910156 -27.460938 L 21.457031 -27.460938 L 21.457031 -11.414062 C 21.457031 -5.804688 18.984375 -2.902344 14.277344 -2.902344 C 9.609375 -2.902344 7.101562 -5.804688 7.101562 -11.414062 L 7.101562 -27.460938 L 3.6875 -27.460938 L 3.6875 -11.179688 C 3.6875 -3.882812 7.648438 0.472656 14.277344 0.472656 Z M 14.277344 0.472656 "/></g></g></g><g fill="#ffffff" fill-opacity="1"><g transform="translate(151.853289, 68.65134)"><g><path d="M 10.628906 0 L 14.082031 0 L 14.082031 -24.164062 L 23.339844 -24.164062 L 23.339844 -27.460938 L 1.332031 -27.460938 L 1.332031 -24.164062 L 10.628906 -24.164062 Z M 10.628906 0 "/></g></g></g><g fill="#000000" fill-opacity="1"><g transform="translate(198.853914, 69.698812)"><g><path d="M 3.109375 0 L 18.191406 0 C 24.15625 0 28.316406 -3.359375 28.316406 -8.191406 C 28.316406 -11.300781 26.636719 -13.824219 23.863281 -15.042969 C 26.132812 -16.34375 27.433594 -18.695312 27.433594 -21.511719 C 27.433594 -26.34375 23.570312 -29.410156 17.4375 -29.410156 L 3.109375 -29.410156 Z M 11.429688 -6.300781 L 11.429688 -11.804688 L 16.554688 -11.804688 C 18.570312 -11.804688 19.703125 -10.796875 19.703125 -9.074219 C 19.703125 -7.308594 18.570312 -6.300781 16.554688 -6.300781 Z M 11.429688 -17.855469 L 11.429688 -23.148438 L 15.839844 -23.148438 C 17.8125 -23.148438 18.90625 -22.183594 18.90625 -20.503906 C 18.90625 -18.78125 17.8125 -17.855469 15.839844 -17.855469 Z M 11.429688 -17.855469 "/></g></g></g><g fill="#000000" fill-opacity="1"><g transform="translate(228.389368, 69.698812)"><g><path d="M 3.109375 0 L 11.597656 0 L 11.597656 -8.359375 L 14.789062 -8.359375 L 18.992188 0 L 28.613281 0 L 23.191406 -9.914062 C 26.300781 -11.636719 28.066406 -14.746094 28.066406 -18.863281 C 28.066406 -25.375 23.652344 -29.410156 16.511719 -29.410156 L 3.109375 -29.410156 Z M 11.429688 -15.125 L 11.429688 -22.476562 L 15.378906 -22.476562 C 18.066406 -22.476562 19.535156 -21.175781 19.535156 -18.824219 C 19.535156 -16.46875 18.066406 -15.125 15.378906 -15.125 Z M 11.429688 -15.125 "/></g></g></g><g fill="#000000" fill-opacity="1"><g transform="translate(258.639062, 69.698812)"><g><path d="M 15.753906 0.628906 C 23.695312 0.628906 28.613281 -4.203125 28.613281 -12.101562 L 28.613281 -29.410156 L 20.167969 -29.410156 L 20.167969 -12.644531 C 20.167969 -9.160156 18.695312 -7.308594 15.753906 -7.308594 C 12.8125 -7.308594 11.34375 -9.160156 11.34375 -12.644531 L 11.34375 -29.410156 L 2.855469 -29.410156 L 2.855469 -12.101562 C 2.855469 -4.203125 7.816406 0.628906 15.753906 0.628906 Z M 15.753906 0.628906 "/></g></g></g><g fill="#000000" fill-opacity="1"><g transform="translate(290.149155, 69.698812)"><g><path d="M 3.109375 0 L 11.511719 0 L 11.511719 -15 L 22.6875 0 L 29.578125 0 L 29.578125 -29.410156 L 21.21875 -29.410156 L 21.21875 -14.496094 L 10.042969 -29.410156 L 3.109375 -29.410156 Z M 3.109375 0 "/></g></g></g><g fill="#000000" fill-opacity="1"><g transform="translate(322.877643, 69.698812)"><g><path d="M 17.4375 0.628906 C 26.804688 0.628906 33.441406 -5.714844 33.441406 -14.703125 C 33.441406 -23.695312 26.804688 -30.039062 17.4375 -30.039062 C 8.066406 -30.039062 1.429688 -23.695312 1.429688 -14.703125 C 1.429688 -5.714844 8.066406 0.628906 17.4375 0.628906 Z M 10.042969 -14.703125 C 10.042969 -19.117188 13.109375 -22.183594 17.4375 -22.183594 C 21.804688 -22.183594 24.832031 -19.117188 24.832031 -14.703125 C 24.832031 -10.292969 21.804688 -7.226562 17.4375 -7.226562 C 13.109375 -7.226562 10.042969 -10.292969 10.042969 -14.703125 Z M 10.042969 -14.703125 "/></g></g></g></svg>